<svg width="20" height="20" viewBox="0 0 24 23" fill="none" xmlns="http://www.w3.org/2000/svg">
<g filter="url(#filter0_d_297_23)">
<path d="M21.7099 19.2899L17.9999 15.6099C19.44 13.8143 20.1374 11.5352 19.9487 9.2412C19.76 6.94721 18.6996 4.81269 16.9854 3.27655C15.2713 1.74041 13.0337 0.919414 10.7328 0.982375C8.43194 1.04534 6.24263 1.98747 4.61505 3.61505C2.98747 5.24263 2.04534 7.43194 1.98237 9.73283C1.91941 12.0337 2.74041 14.2713 4.27655 15.9854C5.81269 17.6996 7.94721 18.76 10.2412 18.9487C12.5352 19.1374 14.8143 18.44 16.6099 16.9999L20.2899 20.6799C20.3829 20.7736 20.4935 20.848 20.6153 20.8988C20.7372 20.9496 20.8679 20.9757 20.9999 20.9757C21.1319 20.9757 21.2626 20.9496 21.3845 20.8988C21.5063 20.848 21.6169 20.7736 21.7099 20.6799C21.8901 20.4934 21.9909 20.2442 21.9909 19.9849C21.9909 19.7256 21.8901 19.4764 21.7099 19.2899ZM10.9999 16.9999C9.61544 16.9999 8.26206 16.5894 7.11091 15.8202C5.95977 15.051 5.06256 13.9578 4.53275 12.6787C4.00293 11.3996 3.86431 9.99214 4.13441 8.63427C4.4045 7.27641 5.07119 6.02912 6.05016 5.05016C7.02912 4.07119 8.27641 3.4045 9.63427 3.13441C10.9921 2.86431 12.3996 3.00293 13.6787 3.53275C14.9578 4.06256 16.051 4.95977 16.8202 6.11091C17.5894 7.26206 17.9999 8.61544 17.9999 9.9999C17.9999 11.8564 17.2624 13.6369 15.9497 14.9497C14.6369 16.2624 12.8564 16.9999 10.9999 16.9999Z" fill="url(#paint0_linear_297_23)"/>
<path d="M17.6099 15.2971L17.3284 15.6481L17.6478 15.9649L21.3534 19.6405C21.4416 19.7334 21.4909 19.8567 21.4909 19.9849C21.4909 20.1135 21.4413 20.2371 21.3526 20.3301C21.3066 20.3759 21.2521 20.4123 21.1922 20.4372C21.1313 20.4626 21.0659 20.4757 20.9999 20.4757C20.9339 20.4757 20.8685 20.4626 20.8076 20.4372C20.7467 20.4119 20.6914 20.3747 20.6449 20.3278L20.6435 20.3264L16.9635 16.6464L16.6466 16.3295L16.2971 16.6099C14.6012 17.9699 12.4487 18.6286 10.2822 18.4504C8.11564 18.2722 6.0997 17.2707 4.64891 15.6517C3.19811 14.0328 2.42273 11.9196 2.48219 9.7465C2.54165 7.57345 3.43144 5.50576 4.9686 3.9686C6.50576 2.43144 8.57345 1.54165 10.7465 1.48219C12.9196 1.42273 15.0328 2.19811 16.6517 3.64891C18.2707 5.0997 19.2722 7.11564 19.4504 9.28219C19.6286 11.4487 18.9699 13.6012 17.6099 15.2971ZM6.83313 16.2359C8.0665 17.06 9.51654 17.4999 10.9999 17.4999C12.989 17.4999 14.8967 16.7097 16.3032 15.3032C17.7097 13.8967 18.4999 11.989 18.4999 9.9999C18.4999 8.51654 18.06 7.0665 17.2359 5.83313C16.4118 4.59976 15.2405 3.63847 13.87 3.07081C12.4996 2.50315 10.9916 2.35463 9.53673 2.64401C8.08187 2.9334 6.7455 3.64771 5.6966 4.6966C4.64771 5.7455 3.9334 7.08187 3.64401 8.53673C3.35463 9.99158 3.50315 11.4996 4.07081 12.87C4.63847 14.2405 5.59976 15.4118 6.83313 16.2359Z" stroke="black"/>
</g>
<defs>
<filter id="filter0_d_297_23" x="-2.021" y="0.979004" width="28.0119" height="27.9966" filterUnits="userSpaceOnUse" color-interpolation-filters="sRGB">
<feFlood flood-opacity="0" result="BackgroundImageFix"/>
<feColorMatrix in="SourceAlpha" type="matrix" values="0 0 0 0 0 0 0 0 0 0 0 0 0 0 0 0 0 0 127 0" result="hardAlpha"/>
<feOffset dy="4"/>
<feGaussianBlur stdDeviation="2"/>
<feComposite in2="hardAlpha" operator="out"/>
<feColorMatrix type="matrix" values="0 0 0 0 0 0 0 0 0 0 0 0 0 0 0 0 0 0 0.25 0"/>
<feBlend mode="normal" in2="BackgroundImageFix" result="effect1_dropShadow_297_23"/>
<feBlend mode="normal" in="SourceGraphic" in2="effect1_dropShadow_297_23" result="shape"/>
</filter>
<linearGradient id="paint0_linear_297_23" x1="1.979" y1="0.979004" x2="25.4288" y2="15.376" gradientUnits="userSpaceOnUse">
<stop stop-color="#F3F9FF"/>
<stop offset="1" stop-color="#F1F0FF"/>
</linearGradient>
</defs>
</svg>
